<svg id="Layer_1" data-name="Layer 1" xmlns="http://www.w3.org/2000/svg" xmlns:xlink="http://www.w3.org/1999/xlink" viewBox="0 0 165.05 39.83"><defs><style>.cls-1{fill:url(#linear-gradient);}.cls-2{fill:none;}.cls-3{fill:#f1c066;}.cls-4{font-size:19.06px;}.cls-4,.cls-6{fill:#141e26;font-family:Arial-BlackItalic, Arial Black;font-weight:800;font-style:italic;}.cls-5{letter-spacing:-0.05em;}.cls-6{font-size:9.99px;letter-spacing:0.14em;}.cls-7{letter-spacing:0.13em;}.cls-8{letter-spacing:0.14em;}.cls-9{letter-spacing:-0.01em;}.cls-10{letter-spacing:0.04em;}</style><linearGradient id="linear-gradient" y1="19.24" x2="32.98" y2="19.24" gradientUnits="userSpaceOnUse"><stop offset="0" stop-color="#f1c066"/><stop offset="1" stop-color="#da9e55"/></linearGradient></defs><polygon class="cls-1" points="32.98 11.05 10.99 11.05 10.99 0 5.48 8.26 0 16.49 5.48 16.49 5.48 38.48 10.99 38.48 10.99 16.82 32.98 16.82 32.98 11.05"/><polyline class="cls-2" points="10.99 10.99 10.99 5.5 10.99 0"/><path class="cls-3" d="M1007,1727.44h10.6a6,6,0,0,1,4.3,1.46,6.35,6.35,0,0,1,1.94,3.5,5.26,5.26,0,0,1-.61,3.87,5.32,5.32,0,0,1-3.91,2.12q2,1.44,5.71,7.93h-6.09q-1.16-2-2.66-4.47a11.14,11.14,0,0,0-2.09-2.82,2.46,2.46,0,0,0-1.33-.38h-.31l-.12,7.67-5.79.1Zm5.63,7.68h1.1a14.23,14.23,0,0,0,3.5-.26,1.64,1.64,0,0,0,1-.87,2,2,0,0,0,.17-1.18,1.81,1.81,0,0,0-.69-1.13,3.86,3.86,0,0,0-2.13-.41h-2.92Z" transform="translate(-992.6 -1707.71)"/><text class="cls-4" transform="translate(32.98 24.53)">TRIU RA<tspan class="cls-5" x="87.87" y="0">J</tspan><tspan x="99.62" y="0">AN</tspan></text><text class="cls-6" transform="translate(36.97 37.72)">FI<tspan class="cls-7" x="13.32" y="0">N</tspan><tspan class="cls-8" x="22.93" y="0">ANCE PV</tspan><tspan class="cls-9" x="82.02" y="0">T</tspan><tspan x="89.08" y="0">. </tspan><tspan class="cls-10" x="98.51" y="0">L</tspan><tspan class="cls-8" x="105.61" y="0">TD.</tspan></text></svg>